<svg xmlns="http://www.w3.org/2000/svg" viewBox="0 0 44 44"><defs><style>.cls-1{fill:#111216;}</style></defs><title>vault@1x</title><g id="Layer_2" data-name="Layer 2"><g id="Miscellaneous"><g id="Safe_2x.png" data-name="Safe@2x.png"><path class="cls-1" d="M16.34,27.66h0a8,8,0,0,0,11.31,0h0a8,8,0,1,0-11.31,0ZM17,21h-.91a6,6,0,0,1,1-2.46l.64.64a1,1,0,1,0,1.41-1.41l-.63-.63a6,6,0,0,1,2.46-1V17a1,1,0,0,0,2,0v-.9a6,6,0,0,1,2.46,1l-.63.63a1,1,0,0,0,1.41,1.41l.64-.64a6,6,0,0,1,1,2.46H27a1,1,0,0,0,0,2h.91a5.94,5.94,0,0,1-1,2.46l-.64-.64a1,1,0,0,0-1.41,1.41l.63.63a6,6,0,0,1-2.46,1V27a1,1,0,0,0-2,0v.9a6,6,0,0,1-2.46-1l.63-.63a1,1,0,0,0-1.41-1.41l-.64.64a5.94,5.94,0,0,1-1-2.46H17a1,1,0,0,0,0-2Zm5,3a2,2,0,1,0-2-2A2,2,0,0,0,22,24ZM40,0H4A4,4,0,0,0,0,4V40a4,4,0,0,0,4,4H40a4,4,0,0,0,4-4V4A4,4,0,0,0,40,0Zm2,40a2,2,0,0,1-2,2H4a2,2,0,0,1-2-2V4A2,2,0,0,1,4,2H40a2,2,0,0,1,2,2ZM38,12V6H6V38H38V32a2,2,0,0,0,2-2V28a2,2,0,0,0-2-2V18a2,2,0,0,0,2-2V14A2,2,0,0,0,38,12Zm-2,0a2,2,0,0,0-2,2v2a2,2,0,0,0,2,2v8a2,2,0,0,0-2,2v2a2,2,0,0,0,2,2v4H8V8H36Z"/></g></g></g></svg>